<svg width="18" height="18" viewBox="0 0 18 18" fill="#4267B2" xmlns="http://www.w3.org/2000/svg">
<g clip-path="url(#clip0)">
<path d="M16.8958 18.0001C17.4302 18.0001 17.8635 17.5553 17.8635 17.0066V0.993445C17.8635 0.444727 17.4302 0 16.8958 0H1.29714C0.762554 0 0.329407 0.444727 0.329407 0.993445V17.0066C0.329407 17.5553 0.762554 18.0001 1.29714 18.0001H16.8958Z" fill="#4267B2"/>
<path d="M12.4276 18.0001V11.0295H14.7068L15.0481 8.31297H12.4276V6.5785C12.4276 5.79199 12.6404 5.25599 13.7391 5.25599L15.1404 5.25536V2.82571C14.8979 2.7926 14.0662 2.71863 13.0985 2.71863C11.0781 2.71863 9.69496 3.9846 9.69496 6.30956V8.31297H7.4099V11.0295H9.69496V18.0001H12.4276Z" fill="white"/>
</g>
<defs>
<clipPath id="clip0">
<rect width="17.5341" height="18" fill="white" transform="translate(0.329407)"/>
</clipPath>
</defs>
</svg>
