<svg width="26" height="26" viewBox="0 0 26 26" fill="none" xmlns="http://www.w3.org/2000/svg">
<path d="M13.1906 9.6154C11.3752 9.6154 9.89368 11.1363 9.89368 13C9.89368 14.8636 11.3752 16.3845 13.1906 16.3845C15.0061 16.3845 16.4876 14.8636 16.4876 13C16.4876 11.1363 15.0061 9.6154 13.1906 9.6154ZM23.0791 13C23.0791 11.5984 23.0914 10.2095 23.0148 8.81052C22.9381 7.18552 22.577 5.74333 21.4195 4.55505C20.2595 3.36423 18.8571 2.99607 17.2741 2.91736C15.9089 2.83865 14.5559 2.85134 13.1931 2.85134C11.8278 2.85134 10.4749 2.83865 9.1121 2.91736C7.52916 2.99607 6.1243 3.36677 4.96677 4.55505C3.80677 5.74587 3.44814 7.18552 3.37146 8.81052C3.29479 10.2121 3.30716 11.601 3.30716 13C3.30716 14.399 3.29479 15.7904 3.37146 17.1894C3.44814 18.8144 3.80924 20.2566 4.96677 21.4449C6.12677 22.6357 7.52916 23.0039 9.1121 23.0826C10.4774 23.1613 11.8303 23.1486 13.1931 23.1486C14.5584 23.1486 15.9113 23.1613 17.2741 23.0826C18.8571 23.0039 20.2619 22.6332 21.4195 21.4449C22.5795 20.2541 22.9381 18.8144 23.0148 17.1894C23.0939 15.7904 23.0791 14.4015 23.0791 13ZM13.1906 18.2076C10.3834 18.2076 8.11781 15.8818 8.11781 13C8.11781 10.1181 10.3834 7.79236 13.1906 7.79236C15.9979 7.79236 18.2635 10.1181 18.2635 13C18.2635 15.8818 15.9979 18.2076 13.1906 18.2076ZM18.4712 8.79529C17.8158 8.79529 17.2865 8.25193 17.2865 7.57908C17.2865 6.90622 17.8158 6.36286 18.4712 6.36286C19.1267 6.36286 19.656 6.90622 19.656 7.57908C19.6562 7.73885 19.6257 7.89709 19.5662 8.04474C19.5067 8.19238 19.4195 8.32654 19.3094 8.43951C19.1994 8.55249 19.0687 8.64207 18.9248 8.70312C18.781 8.76417 18.6269 8.79549 18.4712 8.79529Z" fill="#B9B9B9"/>
</svg>
