<?xml version="1.0" encoding="utf-8"?>
<!-- Generator: Adobe Illustrator 18.0.0, SVG Export Plug-In . SVG Version: 6.00 Build 0)  -->
<!DOCTYPE svg PUBLIC "-//W3C//DTD SVG 1.1//EN" "http://www.w3.org/Graphics/SVG/1.1/DTD/svg11.dtd">
<svg version="1.1" id="Layer_1" xmlns="http://www.w3.org/2000/svg" xmlns:xlink="http://www.w3.org/1999/xlink" x="0px" y="0px"
	 viewBox="0 0 1000 1000" enable-background="new 0 0 1000 1000" xml:space="preserve">
<title>kb_grubgrub live svg</title>
<g>
	<path d="M233.1,358.3c2.7,0,5.5,0.6,8.5,1.9c3,1.3,5.6,3.1,7.9,5.3c2.3,2.3,3.4,4.5,3.1,6.6c-2,21.7-4.1,43.2-6.3,64.4
		c-2.1,21.2-5.1,42-8.8,62.6c-3.7,20.6-8.5,40.8-14.4,60.7c-5.9,19.8-13.7,39.2-23.4,58.1c-4.7,9.3-10.7,16.9-17.7,22.9
		c-7.1,6-14.5,10.4-22.4,13.2c-7.8,2.8-15.6,3.9-23.2,3.3c-7.7-0.6-14.5-2.9-20.6-6.8c-6.1-3.9-10.9-9.6-14.6-16.8
		c-3.7-7.3-5.3-16.3-5-27c0.7-1.8,2.3-4.3,4.7-7.5s5-6.1,7.8-8.7c2.8-2.6,5.4-4.6,7.9-5.9c2.4-1.3,4-1,4.6,0.9
		c-1.5,11.9-1.7,21.8-0.5,29.9s3.4,14.2,6.7,18.5c3.2,4.3,7.1,6.8,11.7,7.5c4.6,0.7,9.4-0.4,14.5-3.2c5.1-2.8,10.3-7.4,15.4-13.5
		c5.1-6.2,9.8-14,14.1-23.5c5-11.3,9.2-22.9,12.8-34.7c3.5-11.9,6.5-23.9,8.9-36.2c2.4-12.3,4.5-24.7,6.1-37.3
		c1.6-12.6,3.1-25.2,4.5-37.8c-7.1,12.9-14.8,25-23.1,36.5c-8.3,11.4-16.9,21.1-26,29.2c-4.3,3.1-8.6,4.9-12.7,5.4
		c-4.1,0.5-8,0.2-11.7-1c-3.7-1.2-7.2-3-10.5-5.6c-3.3-2.5-6.3-5.3-9-8.4c-2.7-3-5-6.2-6.9-9.4c-1.9-3.2-3.4-6.2-4.4-8.7
		c-2.8-7.3-4.9-15.7-6.3-25.2c-1.3-9.5-1.8-19.8-1.5-30.8c0.3-11,1.4-22.4,3.3-34.2c1.9-11.8,4.7-23.7,8.4-35.6
		c3-8.9,6.2-18.4,9.7-28.3c3.5-9.9,7.5-19.6,11.9-29.1c4.5-9.4,9.5-18.3,15.1-26.6c5.6-8.3,12.1-15.2,19.5-20.8
		c2.5-2,6.4-2.4,11.5-1.2c5.1,1.2,10.3,3.5,15.5,6.7c5.2,3.3,10,7.2,14.1,11.8c4.2,4.6,6.6,9.2,7.3,13.8c1.6,9.6,2.1,19,1.6,28.1
		c-0.5,9.1-1.8,17.7-3.8,25.9c-2,8.2-4.8,15.8-8.3,22.8c-3.5,7-7.3,13.3-11.5,18.8c-1.9,2-4.6,3.8-8.1,5.4
		c-3.5,1.5-6.9,2.6-10.4,3.3c-3.5,0.6-6.6,0.7-9.3,0.3c-2.7-0.4-4.3-1.4-4.6-3.1c3.2-4.1,6.7-9.2,10.5-15.2c3.8-6,7.5-12.5,11-19.5
		c3.6-7,6.8-14.2,9.6-21.6c2.9-7.4,5.1-14.4,6.6-21.1c1.5-6.7,2.2-12.8,2.1-18.5c-0.2-5.6-1.6-10.1-4.1-13.5c-2.2-3-4.2-4.7-5.8-5.1
		c-1.7-0.5-3.2-0.2-4.6,0.7c-1.4,0.9-2.6,2.3-3.7,4.2c-1.1,1.9-2.2,3.7-3.3,5.4c-4.2,5.6-8.4,12.8-12.7,21.5
		c-4.3,8.7-8.5,18.3-12.5,28.7c-4,10.4-7.7,21.4-11.2,32.9c-3.5,11.6-6.5,23.1-9.1,34.5c-2.6,11.5-4.7,22.6-6.2,33.5
		c-1.6,10.9-2.4,20.8-2.4,29.6c-0.1,8.9,0.7,16.6,2.2,23.1c1.6,6.5,4.2,11.1,7.9,13.8c3.3,2.2,6.9,2.1,11-0.1c4-2.2,8.2-6,12.6-11.2
		c4.4-5.2,8.9-11.6,13.5-19.3c4.6-7.6,9.1-15.8,13.5-24.4c4.4-8.7,8.6-17.5,12.6-26.4c4-9,7.7-17.5,11-25.6
		c3.3-8.1,6.1-15.3,8.5-21.7c2.4-6.4,4.1-11.3,5.1-14.9l0.5-3.3C228.8,359.5,230.4,358.4,233.1,358.3z"/>
	<path d="M284.4,329.6c1.9-2.8,4.5-4,7.6-3.5c3.1,0.4,6.1,1.5,8.8,3.3c2.8,1.8,4.9,3.9,6.5,6.3c1.6,2.4,1.9,4.2,0.9,5.5
		c-1.2,1.7-2.6,3.9-4.1,6.6c-1.5,2.6-2.9,5.3-4,8.1c-1.2,2.7-2,5.3-2.5,7.6c-0.5,2.3-0.4,3.9,0.3,4.9c0.7,0.9,2.2,1,4.5,0.1
		c2.3-0.9,5.7-3.1,10.3-6.7c2.8-0.7,5.7-0.7,8.8-0.2c3.1,0.5,5.8,1.3,8.2,2.3c2.4,1,4.2,2.2,5.4,3.5c1.2,1.3,1.3,2.5,0.3,3.6
		c-4.1,7.1-7.4,13.7-10.1,19.7c-2.7,6-4.7,11.9-6.1,17.7c-1.4,5.8-2.2,11.9-2.4,18.2c-0.2,6.3,0,13.4,0.8,21.2
		c3.2,5.1,6.6,7.1,10.1,6.2c3.5-0.9,7-3.9,10.5-8.9c3.5-5,7-11.5,10.5-19.4c3.5-8,6.7-16.3,9.8-25.1c3.1-8.8,5.9-17.6,8.4-26.3
		c2.6-8.7,4.8-16.4,6.6-23c0.6-1,1.4-1.6,2.3-1.7c1-0.1,1.9,0.1,2.8,0.6c0.9,0.5,1.6,1.2,2.1,2.1c0.5,0.9,0.7,1.8,0.4,2.8
		c-1.9,8-4,16.5-6.3,25.6c-2.3,9.1-4.7,18.2-7.2,27.3c-2.6,9.1-5.2,17.8-8,26.2c-2.8,8.4-5.7,15.8-8.7,22.2
		c-3,6.4-6.2,11.6-9.5,15.5c-3.3,3.9-6.6,5.9-9.9,6c-4.3,1.4-8.9,1.5-13.8,0.4c-4.9-1.1-9.4-3-13.5-5.7c-4.1-2.7-7.6-6-10.5-9.9
		c-2.8-3.9-4.4-8.1-4.8-12.4c-0.8-7.6-0.8-14.2-0.2-19.7c0.6-5.5,1.5-10.5,2.5-15.2c1.1-4.7,2.2-9.3,3.4-13.9
		c1.2-4.6,2.2-9.8,3-15.8c-5.7,1.5-11,1.6-15.9,0.2c-4.9-1.3-8.4-5.1-10.6-11.3c-1.2-3.4-1.7-7.3-1.5-11.5c0.2-4.2,1-8.5,2.3-12.7
		c1.3-4.2,3-8.1,5.2-11.8C279.3,334.9,281.7,331.9,284.4,329.6z"/>
	<path d="M426.7,329.9c0.2-1.3,1.9-2.1,5.1-2.4c3.1-0.3,6.6-0.3,10.3,0c3.7,0.3,7.1,0.9,10.1,1.8c3,0.9,4.4,2,4.1,3.3
		c-5,16.3-8.8,32.6-11.5,48.9c-2.6,16.3-3.7,33.8-3.2,52.7c-0.1,4.7,0.7,6.9,2.4,6.4c1.7-0.5,3.7-2.1,6-5c2.3-2.9,4.6-6.2,6.9-10.1
		c2.3-3.8,4-6.8,5.2-8.8c2.9-6.6,5.8-13.8,8.7-21.6c2.9-7.8,5.6-15.7,8.3-23.8c2.7-8.1,5.2-16.2,7.6-24.3c2.4-8.1,4.8-15.7,7-23
		c0.8-0.9,1.6-1.5,2.7-1.7c1-0.3,2-0.2,2.9,0.1c0.9,0.3,1.6,0.8,2.2,1.7c0.6,0.8,0.8,1.8,0.6,3.1c-2.4,7.6-4.9,15.8-7.3,24.4
		c-2.4,8.7-4.9,17.4-7.3,26.1c-2.5,8.7-5,17.2-7.5,25.5c-2.5,8.3-5.1,15.9-7.8,22.8c-2.7,6.9-5.4,12.8-8.3,17.6
		c-2.9,4.9-5.8,8.3-8.8,10.2c-11.6,1.5-20.7,0.7-27.1-2.2c-6.4-3-10.3-7.2-11.6-12.8c-1.6-8-2.3-16.7-2.2-26.2
		c-1.1,3.9-2.3,8.1-3.4,12.6c-1.2,4.6-2.3,9-3.5,13.4c-1.2,4.3-2.3,8.3-3.4,11.8c-1,3.5-1.9,6.3-2.6,8.3c-1.1,2.3-2.9,3.7-5.3,4.2
		c-2.4,0.4-5.2,0.2-8.3-0.7c-3.1-0.9-6.2-2.2-9.5-4c-3.3-1.8-6.3-3.7-9.2-5.7c-2.8-2-5.2-4-7.1-5.9c-2-1.9-3-3.6-3.3-4.9
		c-0.2-18,0.7-35.3,2.8-51.8c2.1-16.6,4.8-33.2,8.2-49.8c0.4-1.1,2-2,4.7-2.7c2.7-0.6,5.7-1,8.9-1c3.2,0,6.2,0.3,9,1
		c2.8,0.7,4.3,1.7,4.6,3.1c-3.7,17.6-6.7,34.2-9.1,49.9c-2.4,15.6-3.3,30.9-2.7,45.7c0,3.7,0.6,6.1,1.7,7.4c1.1,1.3,2.3,1.7,3.8,1.3
		c1.5-0.4,2.9-1.5,4.3-3.3c1.4-1.8,2.6-3.8,3.4-6.1c1-2.8,2.5-7.4,4.4-13.7c1.9-6.4,3.9-13.4,6.1-21c2.1-7.6,4.3-15.3,6.5-22.9
		c2.2-7.6,4.1-14.2,5.7-19.7c0.9-5.1,2-9.9,3.1-14.5C424.7,338.6,425.8,334.1,426.7,329.9z"/>
	<path d="M510.5,238.5c0.8-0.9,2.4-0.9,5,0.1c2.5,1,5.2,2.3,8.1,4c2.8,1.7,5.4,3.5,7.6,5.5c2.3,2,3.3,3.5,3.2,4.6
		c-5,12.3-8.7,23.7-11.2,34c-2.5,10.3-4.5,20.6-6.1,31c-1.6,10.4-2.9,21.3-4,32.9c-1.1,11.6-2.7,24.8-4.8,39.7
		c-0.9,5.3-1.3,8.6-1.3,9.7c0,1.1,0.2,1.1,0.6-0.2c0.5-1.3,1.1-3.3,1.9-6.1c0.8-2.7,1.6-5.3,2.4-7.8c2.7-8.6,4.9-15.8,6.6-21.7
		c1.7-5.9,3.4-11.4,5-16.5c1.7-5.1,3.6-10.4,5.9-15.8c2.2-5.4,5.2-12.1,8.8-19.9c1-2.6,3.1-3.6,6.2-3c3.1,0.7,6.3,2.1,9.6,4.5
		c3.3,2.3,6.4,5,9.2,8.2c2.8,3.2,4.5,5.9,5.3,8.2c1.1,4.2,1.9,8.6,2.4,13.2c0.5,4.6,0.6,9.2,0.2,14c7.1-8.3,13.5-16.6,19.4-25
		c5.9-8.4,10.5-17.1,13.7-26.1c0.7-1.2,1.5-1.9,2.5-2.1c1-0.2,1.9,0,2.7,0.5c0.9,0.5,1.5,1.3,2,2.4c0.5,1.1,0.6,2.2,0.4,3.5
		c-0.8,2.6-2.4,6.1-5,10.6c-2.5,4.5-5.7,9.6-9.6,15.4c-3.9,5.7-8.1,11.8-12.9,18.1c-4.7,6.4-9.6,12.7-14.5,19.1
		c-0.6,6.7-1.9,13.2-3.7,19.5c-1.8,6.3-4.2,12.1-7.1,17.4c-2.9,5.3-6.1,10-9.7,13.9c-3.6,3.9-7.6,7-12,9.1c-1.7,0.8-3.5,1-5.5,0.8
		c-2-0.3-3.8-0.9-5.4-2c-1.6-1.1-3.1-2.5-4.4-4.1c-1.3-1.7-2.2-3.5-2.7-5.6c-1.1-1.6-1.6-3.6-1.7-6c0-2.4,0.3-4.7,1-6.9
		c0.7-2.3,1.8-4.4,3.1-6.5c1.3-2.1,2.8-3.7,4.4-4.9c4.4-4.5,8.1-8.5,11.2-12.2c3.1-3.7,5.4-7.5,6.9-11.5c1.5-4,2.2-8.5,2.2-13.4
		c-0.1-5-0.9-11.1-2.5-18.4c-0.5-6.2-1.2-9.6-2-10.4c-0.8-0.8-1.8-0.1-2.9,1.9c-1.1,2-2.2,4.8-3.2,8.3c-1.1,3.5-2,6.4-2.8,8.6
		c-2.2,6.2-4.5,13-6.8,20.3c-2.3,7.4-4.4,14.3-6.3,21c-1.9,6.6-3.5,12.4-4.8,17.4c-1.2,5-1.9,8-2,9.1c-0.7,3-1.3,6.5-1.8,10.4
		c-0.5,3.9-1.2,7.2-2.1,10c-0.9,2.6-2.7,4.1-5.5,4.4c-2.8,0.3-5.6,0.1-8.5-0.9c-2.9-0.9-5.5-2.2-7.8-3.8c-2.3-1.6-3.4-3.1-3.3-4.4
		c-0.8-15.3-1.1-30.8-1-46.6c0.1-15.8,1.1-31.8,2.9-48.1c1.8-16.3,4.6-32.9,8.4-49.7C498.5,273.2,503.8,256,510.5,238.5z"/>
</g>
<g>
	<path d="M535.4,585.9c-1.5-8.4,3-15.3,10.8-16.7c7.8-1.4,14.1,3.5,15.6,11.8c1.4,8.1-2.6,15.2-10.8,16.7
		C543.2,599.1,536.8,594,535.4,585.9z"/>
</g>
<g>
	<path d="M607.8,385.9c0.2-1.3,1.6-1.5,4.1-0.7c2.5,0.8,5.2,2,8.2,3.6c3,1.6,5.7,3.4,8.1,5.4c2.4,2,3.6,3.7,3.6,5.1
		c-2.3,5.6-4.7,13.1-6.9,22.4c-2.3,9.3-4.5,19.6-6.7,30.9c-2.2,11.2-4.1,22.9-5.8,35.1c-1.7,12.1-3.1,23.8-4.2,35.1
		c-1.1,11.3-1.8,21.6-2.2,31.1c-0.4,9.5-0.1,17,0.8,22.7c0.4,3.3,1.1,5.3,2,5.9c0.9,0.7,2,0.5,3.2-0.5c1.3-1,2.6-2.6,4-4.7
		c1.4-2.2,2.7-4.5,4-7c1.3-2.5,2.5-5,3.5-7.4c1-2.4,1.9-4.3,2.5-5.8c3.1-6.7,6.1-14.1,8.9-22.2c2.9-8.2,5.6-16.5,8.2-25.1
		c2.6-8.6,5.1-17.1,7.6-25.8c2.5-8.6,5-16.8,7.6-24.6c0.7-1,1.5-1.7,2.4-1.8c0.9-0.2,1.8-0.1,2.7,0.2c0.9,0.3,1.6,0.9,2.2,1.8
		c0.5,0.9,0.8,1.9,0.7,3c-2.4,7.8-4.8,16-7,24.7c-2.2,8.7-4.4,17.5-6.5,26.4c-2.1,8.8-4.2,17.5-6.3,25.9c-2.2,8.4-4.4,16.1-6.8,23
		c-2.4,6.9-5.1,12.9-7.9,17.8c-2.9,4.9-6,8.4-9.5,10.4c-3.8,1.1-7.8,1.4-12,0.8s-8.2-1.9-12-3.8c-3.8-1.9-7.1-4.3-9.9-7.3
		c-2.8-2.9-4.6-6.2-5.4-9.7c-1.9-8.2-2.9-17.9-2.8-29.2c0-11.2,0.7-23,2.1-35.3c1.4-12.3,3.2-24.7,5.5-37.3
		c2.3-12.6,4.7-24.3,7.3-35.3c2.5-11,4.9-20.7,7.3-29C604.3,396.2,606.3,390,607.8,385.9z"/>
	<path d="M656.6,453.4c0.2-1.3,1.9-2.1,5.1-2.4c3.1-0.3,6.6-0.3,10.3,0c3.7,0.3,7.1,0.9,10.1,1.8c3,0.9,4.4,2,4.1,3.3
		c-5,16.3-8.8,32.6-11.5,48.9c-2.6,16.3-3.7,33.8-3.2,52.7c0,3.2,0.4,5.2,1.3,6c0.9,0.8,2,0.7,3.3-0.1c1.3-0.8,2.7-2.2,4.3-4.2
		c1.6-2,3.1-4.1,4.7-6.5c1.6-2.3,3-4.7,4.2-7c1.3-2.3,2.3-4.2,3.1-5.7c2.9-6.6,5.8-13.9,8.7-21.7c2.9-7.8,5.6-15.8,8.2-23.8
		c2.6-8,5.1-16.1,7.4-24.1c2.4-8.1,4.6-15.7,6.8-23c0.8-0.9,1.6-1.5,2.7-1.7c1-0.3,2-0.2,2.9,0.1c0.9,0.3,1.6,0.8,2.2,1.7
		c0.6,0.8,0.8,1.8,0.6,3.1c-2.4,7.6-4.8,15.7-7,24.2c-2.2,8.5-4.4,17.1-6.6,25.7c-2.2,8.6-4.4,17.1-6.8,25.3
		c-2.3,8.2-4.8,15.8-7.5,22.7c-2.7,6.9-5.5,12.9-8.7,17.9c-3.1,5.1-6.6,8.7-10.5,10.9c-11.6,1.5-20.6,0.7-27-2.2
		c-6.3-3-10.2-7.3-11.5-12.8c-1.6-8.1-2.3-16.9-2.1-26.3c0.2-9.4,0.9-19,2.2-28.6s2.8-19.1,4.6-28.3
		C653,469.7,654.8,461.2,656.6,453.4z M670.5,384c1.1-1.6,3.3-2,6.6-1.3c3.3,0.7,6.8,1.9,10.3,3.5c3.5,1.7,6.7,3.5,9.5,5.5
		c2.8,2,4.2,3.6,4.1,4.9c-2.7,4.8-4.8,8.8-6.4,12c-1.6,3.3-3.2,6.4-4.6,9.3c-1.5,2.9-2.9,5.9-4.3,9c-1.4,3.1-3.3,6.8-5.5,11.2
		c-0.9,1.1-2.2,1.6-3.8,1.6c-1.7,0-3.4-0.4-5.2-1.2c-1.8-0.8-3.2-1.9-4.5-3.2c-1.2-1.3-1.8-2.7-1.6-4.3c0.1-2,0.2-4.7,0.2-8.2
		c0.1-3.4,0.3-7.3,0.7-11.6c0.4-4.3,0.9-8.8,1.6-13.5C668.2,393.1,669.2,388.5,670.5,384z"/>
	<path d="M848.2,442.5c-3.1,3.9-6.9,7.2-11.3,9.7c-4.4,2.6-9.2,4.3-14.2,5.3c-5,1-10.1,1-15.2,0.1c-5.1-0.9-9.9-2.9-14.3-6.1
		c-1.5,10.2-3,20.5-4.5,30.8c-1.5,10.3-3.6,20.3-6.2,29.9c-2.6,9.6-6.1,18.6-10.5,27.1c-4.3,8.5-10,16.1-17.1,22.7
		c-1.2,0.2-3.7,0.3-7.7,0.1c-3.9-0.1-8-0.4-12.3-0.9c-4.3-0.4-8.2-1.1-11.7-2c-3.5-0.9-5.6-2-6.3-3.2c-1.8-7.6-2.8-16.2-3-25.8
		c-0.2-9.6,0.1-19.5,1-29.8c0.9-10.3,2.2-20.9,4-31.7c1.8-10.8,3.9-21.2,6.2-31.2c0.2-1.4,1.7-2.2,4.5-2.4c2.8-0.2,5.8,0,9.1,0.7
		c3.2,0.6,6.2,1.6,8.9,2.8c2.7,1.2,4,2.6,3.9,4.1c-0.9,2.5-1.9,5.9-3,10.3c-1,4.4-2.1,9.4-3.2,14.9c-1.1,5.5-2.1,11.5-3.1,17.8
		c-1,6.4-1.9,12.7-2.6,19c-0.8,6.3-1.4,12.4-2,18.2c-0.6,5.8-0.9,11-1,15.6c0,3.7,0.5,6.1,1.2,7.5c0.8,1.3,1.7,1.8,2.9,1.5
		c1.2-0.3,2.5-1.2,3.9-2.6c1.4-1.5,2.9-3.1,4.4-4.9c5-6.7,8.7-14.2,11.1-22.5c2.3-8.3,4.2-16.9,5.5-26c1.4-9,2.6-18.2,3.8-27.6
		c1.2-9.4,3.2-18.6,6-27.7c-0.1-1.4,0.9-2.5,3-3.5c2.1-1,4.5-1.6,7.1-2c2.6-0.3,5.1-0.3,7.3,0.1c2.3,0.4,3.5,1.3,3.8,2.7
		c-0.2,0.6-0.2,1.1,0,1.4c4.8,2.7,9.2,4.9,13.4,6.6c4.2,1.8,8.2,2.8,11.9,3.1c3.7,0.3,7.1-0.2,10.2-1.5c3-1.3,5.8-3.7,8.2-7.2
		c1.4-0.9,2.7-1.2,3.9-1.1c1.2,0.2,2.3,0.6,3.1,1.4c0.8,0.8,1.3,1.7,1.6,2.9C849.4,440.3,849.1,441.4,848.2,442.5z"/>
	<path d="M875.7,428.1c1.5,7.5,1.5,15.1-0.1,22.8c-1.6,7.7-4.2,15-8,21.9c-3.7,6.9-8.2,13.2-13.3,18.8c-5.2,5.6-10.6,10-16.3,13.4
		c0.5,4.3,1,8.1,1.6,11.3c0.6,3.2,1.5,5.7,2.8,7.6c2.2,4.8,5.1,7.4,8.6,7.8c3.5,0.4,7.7-1.1,12.6-4.6c7.2-5,13.2-11.5,18-19.7
		c4.8-8.2,8.9-17.3,12.5-27.2c3.5-10,6.8-20.4,9.7-31.2c2.9-10.8,6.2-21.3,9.9-31.4c0.5-1.5,1.2-2.3,2.2-2.6c0.9-0.2,1.9,0,2.9,0.6
		c1,0.7,1.7,1.6,2.3,2.7c0.6,1.1,0.8,2.2,0.7,3.3c-2.6,7.8-5.1,16-7.5,24.5c-2.4,8.5-4.9,17.1-7.4,25.6c-2.5,8.5-5.1,16.8-7.7,24.6
		c-2.6,7.9-5.5,15-8.6,21.5c-3.1,6.4-6.5,11.9-10.2,16.5c-3.7,4.6-7.8,7.6-12.2,9.2c-4.1,1.7-8.8,2-13.9,1c-5.1-1-10.2-2.8-15.1-5.5
		c-4.9-2.7-9.4-6.1-13.4-10.1c-4-4-7-8.3-9.1-12.8c-1.5-3.4-2.5-7.8-2.8-13.2c-0.4-5.4-0.2-11.3,0.4-17.7c0.6-6.4,1.6-13,3.1-19.8
		c1.4-6.8,3.2-13.4,5.3-19.6c2.1-6.3,4.4-11.9,7-17c2.6-5.1,5.4-9.1,8.4-12c2.3-2.4,5.5-3.5,9.6-3.4c4.1,0.1,8.1,0.9,12.1,2.5
		c4,1.6,7.6,3.5,10.8,5.8C873.5,424.1,875.3,426.2,875.7,428.1z M863.5,428.2c-1.7,1.4-4,4.3-6.6,8.9c-2.7,4.5-5.4,9.8-8,15.8
		c-2.7,6-5,12.4-7.1,19.1c-2.1,6.8-3.3,13.1-3.8,19c2.8-2.5,5-4.6,6.7-6.2c1.7-1.7,3.1-3.3,4.2-4.9c1.1-1.6,2.1-3.2,2.9-4.8
		c0.9-1.6,1.9-3.5,3.2-5.7c0.6-1,1.3-2.9,2.2-5.6c0.9-2.7,1.8-5.6,2.6-8.8c0.9-3.2,1.7-6.5,2.5-9.8c0.8-3.3,1.4-6.4,1.8-9
		c0.4-2.7,0.6-4.8,0.6-6.3C864.6,428.4,864.2,427.8,863.5,428.2z"/>
</g>
</svg>
