<svg id="ac370e99-250f-4203-ae2c-c306a69114f3" xmlns="http://www.w3.org/2000/svg" viewBox="0 0 1144 697.99">
<defs>
<style>.cls-1,.cls-4{fill:#e0b300;}.cls-1,.cls-5{opacity:0.3;}.cls-1,.cls-5,.cls-8,.cls-9{isolation:isolate;}.cls-2{opacity:0.2;}.cls-3{fill:#3f3d56;}.cls-6{fill:#fff;}.cls-10,.cls-7{opacity:0.5;}.cls-13,.cls-8{fill:none;}.cls-8{stroke:#3f3d56;stroke-linecap:round;stroke-width:0.79px;opacity:0.7;}.cls-11,.cls-13,.cls-14,.cls-8{stroke-miterlimit:10;}.cls-9{opacity:0.25;}.cls-10{fill:#898484;}.cls-11{fill:#f9f9f9;stroke-width:11.44px;}.cls-11,.cls-13,.cls-14{stroke:#303030;}.cls-12,.cls-14{fill:#303030;}.cls-13,.cls-14{stroke-width:10px;}</style></defs>
<title>kb_grubArtboard 1</title><path class="cls-1" d="M1023.52,330a142.51,142.51,0,0,1-20.62,74.11c0,27.32-12.74,52.09-33.4,70.15a115,115,0,0,1-16.64,12.06l-.73.43-1.33.79-.42.25h0a130,130,0,0,1-64,16.42H291.91q-7.11,0-14.09-.57a166.8,166.8,0,0,1-48.19-11.16q-4.51-1.79-8.86-3.84c-1.38-.65-2.75-1.31-4.1-2-.84-.42-1.69-.87-2.52-1.31a147.61,147.61,0,0,1-27.21-18.46c-26.83-23.07-43.47-54.95-43.47-90.15a142.44,142.44,0,0,1-23-77.89c0-78.26,62.55-141.7,139.72-141.7,2.37,0,4.73.07,7.1.19a6.84,6.84,0,0,1,1,.05c13-22.17,30.4-42.55,51.31-60.48C376.65,48,460,17.2,552.83,17.2c78,0,149.31,21.74,203.92,57.68a137.44,137.44,0,0,1,67.85-17.8c77.15,0,139.72,63.44,139.72,141.7a146.67,146.67,0,0,1-.79,14.82A142.1,142.1,0,0,1,1023.52,330Z"/><g class="cls-2"><path class="cls-3" d="M229.7,491.38c0,.36,0,.72-.07,1.07q-4.51-1.79-8.86-3.84a7.11,7.11,0,0,1-4.1-2c-.84-.42-1.69-.87-2.52-1.31a10.82,10.82,0,0,1,.64-1.15,7.34,7.34,0,0,1,13.36.41A13.26,13.26,0,0,1,229.7,491.38Z"/><path class="cls-3" d="M230.13,477.87a13.31,13.31,0,0,1-2,6.69c-1.63,2.57-4.1,4.18-6.82,4.09l-.56,0a7.11,7.11,0,0,1-4.1-2,9.63,9.63,0,0,1-1.88-2.46,13.83,13.83,0,0,1,.42-13.51c1.63-2.58,4.1-4.19,6.82-4.1a8,8,0,0,1,6.55,4.51A13.36,13.36,0,0,1,230.13,477.87Z"/><ellipse class="cls-3" cx="222.12" cy="464.11" rx="11.06" ry="8.45" transform="translate(-248.78 671.46) rotate(-88.19)"/><ellipse class="cls-3" cx="222.54" cy="450.6" rx="11.06" ry="8.45" transform="translate(-234.86 658.79) rotate(-88.19)"/><ellipse class="cls-3" cx="223.03" cy="436.2" rx="11.06" ry="8.45" transform="translate(-219.66 646.05) rotate(-88.28)"/><path class="cls-4" d="M194.26,343.58a40.27,40.27,0,0,1-3-4.74l22.31-2.94-24-.58a40.55,40.55,0,0,1,.24-32.08L221.47,321l-29-22.77a40.48,40.48,0,1,1,65.39,47.36,39.87,39.87,0,0,1,4.38,7.53L233,367.13l31-9.33a40.51,40.51,0,0,1-7.75,37.81,40.48,40.48,0,1,1-63.59-2,40.48,40.48,0,0,1,1.58-50Z"/><path class="cls-5" d="M265.72,370.88a40.26,40.26,0,0,1-9.47,24.73,40.48,40.48,0,1,1-63.59-2C187.47,386.56,265.87,366.33,265.72,370.88Z"/></g><path class="cls-6" d="M876.7,111.55V503.13a14.8,14.8,0,0,1-14.53,15H281.83a14.05,14.05,0,0,1-4-.59,15,15,0,0,1-10.52-14.46V159.07a6.84,6.84,0,0,1,1,.05c13-23,30.4-44.05,51.31-62.61H862.17A14.79,14.79,0,0,1,876.7,111.55Z"/><rect class="cls-4" x="352.55" y="142.11" width="63.6" height="16.82" rx="8.41" ry="8.41"/><rect class="cls-4" x="352.55" y="165.76" width="176.61" height="16.82" rx="8.41" ry="8.41"/><rect class="cls-4" x="352.55" y="189.42" width="176.61" height="16.82" rx="8.41" ry="8.41"/><g class="cls-7"><rect class="cls-4" x="352.55" y="235.67" width="63.6" height="16.82" rx="8.41" ry="8.41"/><rect class="cls-4" x="725.9" y="259.33" width="63.6" height="16.82" rx="8.41" ry="8.41"/><rect class="cls-4" x="725.9" y="352.88" width="63.6" height="16.82" rx="8.41" ry="8.41"/><rect class="cls-4" x="725.9" y="445.13" width="63.6" height="16.82" rx="8.41" ry="8.41"/><rect class="cls-4" x="727.52" y="165.76" width="63.6" height="16.82" rx="8.41" ry="8.41"/><rect class="cls-4" x="352.55" y="259.33" width="131.83" height="16.82" rx="8.41" ry="8.41"/><rect class="cls-4" x="352.55" y="282.98" width="176.61" height="16.82" rx="8.41" ry="8.41"/></g><rect class="cls-4" x="352.55" y="329.23" width="63.6" height="16.82" rx="8.41" ry="8.41"/><rect class="cls-4" x="352.55" y="352.88" width="176.61" height="16.82" rx="8.41" ry="8.41"/><rect class="cls-4" x="352.55" y="376.54" width="109.72" height="16.82" rx="8.41" ry="8.41"/><rect class="cls-4" x="352.55" y="422.79" width="63.6" height="16.82" rx="8.41" ry="8.41"/><rect class="cls-4" x="352.55" y="446.45" width="176.61" height="16.82" rx="8.41" ry="8.41"/><rect class="cls-4" x="352.55" y="470.1" width="142.09" height="16.82" rx="8.41" ry="8.41"/><line class="cls-8" x1="325.72" y1="221.36" x2="840.39" y2="221.36"/><line class="cls-8" x1="325.72" y1="316.48" x2="840.39" y2="316.48"/><line class="cls-8" x1="325.72" y1="411.6" x2="840.39" y2="411.6"/><line class="cls-8" x1="325.72" y1="505.09" x2="840.39" y2="505.09"/><ellipse class="cls-1" cx="795" cy="687.49" rx="147.68" ry="10.5"/><circle class="cls-1" cx="176.15" cy="113.58" r="17.07"/><circle class="cls-1" cx="160.67" cy="21.63" r="21.63"/><circle class="cls-1" cx="241.52" cy="84.04" r="28.61"/><path class="cls-5" d="M710,281.94h75.72a9.45,9.45,0,0,1,9.44,9.45h0a9.44,9.44,0,0,1-9.44,9.44H710a9.45,9.45,0,0,1-9.45-9.44h0A9.45,9.45,0,0,1,710,281.94Z"/><path class="cls-5" d="M712.64,374.77h75.72a9.45,9.45,0,0,1,9.45,9.45h0a9.45,9.45,0,0,1-9.45,9.44H712.64a9.45,9.45,0,0,1-9.45-9.44h0A9.45,9.45,0,0,1,712.64,374.77Z"/><path class="cls-5" d="M710,468.67h75.72a9.44,9.44,0,0,1,9.44,9.44h0a9.44,9.44,0,0,1-9.44,9.44H710a9.44,9.44,0,0,1-9.45-9.44h0A9.44,9.44,0,0,1,710,468.67Z"/><path class="cls-9" d="M545.19,112.66h75.72a9.44,9.44,0,0,1,9.45,9.44h0a9.45,9.45,0,0,1-9.45,9.45H545.19a9.45,9.45,0,0,1-9.45-9.45h0A9.44,9.44,0,0,1,545.19,112.66Z"/><path class="cls-5" d="M710,188.38h75.72a9.45,9.45,0,0,1,9.44,9.45h0a9.44,9.44,0,0,1-9.44,9.44H710a9.44,9.44,0,0,1-9.45-9.44h0A9.45,9.45,0,0,1,710,188.38Z"/><path class="cls-5" d="M760.29,372a5.47,5.47,0,0,1,.64,2.57c-.39-1.92-3-3-3.21-4.89-.08-.88.08-.84.63-.37C759.18,370,759.53,371.23,760.29,372Z"/><path class="cls-5" d="M752.23,377.83a4,4,0,0,1,1.21,1.78,4.57,4.57,0,0,1,.23,3.11,1.6,1.6,0,0,1-.64-1.08,7.43,7.43,0,0,0-.78-1.84c-.32-.49-1.76-1.68-1.75-2.22C750.48,376.76,751.84,377.54,752.23,377.83Z"/><ellipse class="cls-4" cx="891.74" cy="522.61" rx="26.8" ry="5.15"/><ellipse class="cls-3" cx="892.19" cy="520.41" rx="3.12" ry="4.08"/><ellipse class="cls-3" cx="892.19" cy="515.43" rx="3.12" ry="4.08"/><ellipse class="cls-3" cx="892.19" cy="510.43" rx="3.12" ry="4.08"/><ellipse class="cls-3" cx="892.19" cy="505.44" rx="3.12" ry="4.08"/><ellipse class="cls-3" cx="892.19" cy="500.44" rx="3.12" ry="4.08"/><ellipse class="cls-3" cx="892.19" cy="495.45" rx="3.12" ry="4.08"/><ellipse class="cls-3" cx="892.19" cy="490.47" rx="3.12" ry="4.08"/><path class="cls-4" d="M880.5,456.3a15.55,15.55,0,0,1-1.16-1.71l8.2-1.35-8.87.07a15,15,0,0,1-.28-11.84l11.89,6.16-11-8.06a15,15,0,1,1,25.94,14.88A14.37,14.37,0,0,1,904,456.3,14.8,14.8,0,0,1,905.7,459l-10.64,5.53,11.35-3.8a14.91,14.91,0,0,1-2.42,14,14.94,14.94,0,1,1-23.49,0,15,15,0,0,1,0-18.48Z"/><path class="cls-5" d="M907.2,465.54a14.9,14.9,0,0,1-3.21,9.24,14.94,14.94,0,1,1-23.49,0C878.5,472.24,907.2,463.86,907.2,465.54Z"/><ellipse class="cls-4" cx="943.93" cy="465.36" rx="18.02" ry="3.47"/><ellipse class="cls-3" cx="944.24" cy="463.9" rx="2.1" ry="2.75"/><ellipse class="cls-3" cx="944.24" cy="460.54" rx="2.1" ry="2.75"/><ellipse class="cls-3" cx="944.24" cy="457.18" rx="2.1" ry="2.75"/><ellipse class="cls-3" cx="944.24" cy="453.82" rx="2.1" ry="2.75"/><ellipse class="cls-3" cx="944.24" cy="450.47" rx="2.1" ry="2.75"/><ellipse class="cls-3" cx="944.24" cy="447.11" rx="2.1" ry="2.75"/><ellipse class="cls-3" cx="944.24" cy="443.75" rx="2.1" ry="2.75"/><path class="cls-4" d="M936.38,420.79a8.46,8.46,0,0,1-.79-1.16l5.53-.9-6,0a9.78,9.78,0,0,1-.92-4.2,9.9,9.9,0,0,1,.72-3.76l8,4.15-7.38-5.42a10,10,0,1,1,17.47,9.92,9.71,9.71,0,0,1-.9,1.33,9.89,9.89,0,0,1,1.15,1.83l-7.16,3.72,7.63-2.57a10.06,10.06,0,0,1-1.62,9.47,10.06,10.06,0,1,1-15.79,0,10,10,0,0,1,0-12.42Z"/><path class="cls-5" d="M954.32,427a10,10,0,0,1-2.14,6.21,10.06,10.06,0,1,1-15.79,0C935,431.5,954.32,425.87,954.32,427Z"/><circle class="cls-10" cx="516.64" cy="122.1" r="11.45"/><rect class="cls-11" x="483.92" y="252.38" width="217.44" height="423.04" rx="12" ry="12"/><rect class="cls-12" x="570.48" y="422.91" width="18.55" height="76.05"/><rect class="cls-12" x="599.67" y="482.58" width="77.53" height="17.21"/><rect class="cls-12" x="508.39" y="482.05" width="77.53" height="17.21"/><rect class="cls-13" x="605.67" y="341" width="65.67" height="65.67"/><rect class="cls-14" x="542.95" y="367.97" width="13.74" height="13.74"/><rect class="cls-14" x="631.63" y="367.97" width="13.74" height="13.74"/><rect class="cls-14" x="541.95" y="453.4" width="13.74" height="13.74"/><rect class="cls-12" x="599.67" y="422.79" width="18" height="63.6"/><rect class="cls-12" x="507.64" y="426.55" width="18" height="72.41"/><rect class="cls-12" x="630.36" y="445.13" width="40.97" height="14.98"/><rect class="cls-12" x="507.64" y="423.71" width="57.86" height="14.98"/><rect class="cls-12" x="570.48" y="335.66" width="18.55" height="76.05"/><rect class="cls-12" x="508.39" y="394.8" width="77.53" height="17.21"/><rect class="cls-12" x="507.64" y="339.3" width="18" height="72.41"/><rect class="cls-12" x="507.64" y="335.66" width="81.39" height="17.22"/><rect class="cls-12" x="657.67" y="419.67" width="13.67" height="25.46"/><rect class="cls-12" x="599.67" y="422.79" width="44.44" height="22.34"/>
<rect class="cls-12" x="637.23" y="433.74" width="23.1" height="11.38"/></svg>