<svg width="25" height="24" viewBox="0 0 25 24" fill="none" xmlns="http://www.w3.org/2000/svg">
<path d="M21.8694 20.6895L16.352 15.0255C17.6779 13.3915 18.339 11.2957 18.198 9.17395C18.0569 7.05225 17.1244 5.06807 15.5946 3.63416C14.0647 2.20026 12.0552 1.42703 9.98416 1.47534C7.9131 1.52365 5.93991 2.38977 4.47508 3.89353C3.01024 5.39729 2.16653 7.42291 2.11947 9.54899C2.07241 11.6751 2.82563 13.7379 4.22242 15.3085C5.61921 16.879 7.55204 17.8362 9.61883 17.981C11.6856 18.1259 13.7272 17.4471 15.3189 16.086L20.8364 21.75L21.8694 20.6895ZM3.6047 9.75003C3.6047 8.415 3.99033 7.10996 4.71283 5.99993C5.43534 4.8899 6.46226 4.02473 7.66373 3.51384C8.86521 3.00295 10.1873 2.86928 11.4628 3.12973C12.7382 3.39018 13.9099 4.03305 14.8294 4.97706C15.749 5.92106 16.3752 7.12379 16.6289 8.43317C16.8827 9.74254 16.7524 11.0997 16.2548 12.3331C15.7571 13.5665 14.9143 14.6207 13.833 15.3624C12.7517 16.1041 11.4805 16.5 10.18 16.5C8.43671 16.498 6.76538 15.7862 5.53269 14.5208C4.3 13.2554 3.60663 11.5396 3.6047 9.75003Z" fill="#666666"/>
</svg>
